# xmcd
#
# Track frame offsets:
#	150
#	14148
#	35705
#	64318
#	85797
#	102023
#	132508
#	155304
#	163533
#	185958
#	203126
#	218833
#	242640
#	257893
#	273940
#
# Disc length: 3853 seconds
#
# Revision: 0
# Processed by: cddbd v1.4PL0 Copyright (c) Steve Scherf et al.
# Submitted via: dBpowerAMP V4.0
#
DISCID=dc0f0b0f
DTITLE=Pink Floyd - Legend Series: Karaoke
DYEAR=1995
DGENRE=Psychedelic Rock
TTITLE0=See Emily Play
TTITLE1=Coming Back To Life
TTITLE2=Time
TTITLE3=Sheep
TTITLE4=Brain Damage
TTITLE5=Shine On You Crazy Diamond
TTITLE6=Comfortably Numb
TTITLE7=Eclipse
TTITLE8=Hey You
TTITLE9=Money
TTITLE10=Nobody Home
TTITLE11=The Fletcher Memorial Home
TTITLE12=Wish You We're Here
TTITLE13=Another Brick In The Wall Part II
TTITLE14=Breathe
EXTD=Karaoke Versions of PINK FLOYD Classics . . . Ashley Dalby
EXTT0=
EXTT1=
EXTT2=
EXTT3=
EXTT4=
EXTT5=
EXTT6=
EXTT7=
EXTT8=
EXTT9=
EXTT10=
EXTT11=
EXTT12=
EXTT13=
EXTT14=
PLAYORDER=
